Normalized EMG Linear Envelopes
nRows=54
nColumns=17

endheader
time	        VM	        VL	        RF	       GRA	        TA	   ADDLONG	   SEMIMEM	      BFLH	        GM	        GL	       TFL	   GLUTMAX	   GLUTMED	      PIRI	    OBTINT	        QF	
2.191	  0.153947	  0.034211	  0.005498	  0.348135	  0.250211	  0.078948	  0.719016	  0.518817	  0.295595	  0.136304	  0.016929	  0.340538	  0.647210	  0.621095	  0.726433	  0.934500	
2.1915	  0.155941	  0.034593	  0.005295	  0.350568	  0.250914	  0.079813	  0.724494	  0.522688	  0.296680	  0.137137	  0.016995	  0.343164	  0.644616	  0.619978	  0.726213	  0.943596	
2.192	  0.157959	  0.034982	  0.005104	  0.353008	  0.251628	  0.080686	  0.729939	  0.526524	  0.297761	  0.137960	  0.017067	  0.345768	  0.641870	  0.618772	  0.725952	  0.952616	
2.1925	  0.160001	  0.035379	  0.004926	  0.355455	  0.252351	  0.081567	  0.735349	  0.530325	  0.298838	  0.138771	  0.017144	  0.348349	  0.638976	  0.617480	  0.725654	  0.961553	
2.193	  0.162065	  0.035785	  0.004760	  0.357909	  0.253085	  0.082455	  0.740722	  0.534090	  0.299912	  0.139572	  0.017227	  0.350907	  0.635937	  0.616105	  0.725322	  0.970406	
2.1935	  0.164151	  0.036200	  0.004606	  0.360368	  0.253830	  0.083351	  0.746058	  0.537818	  0.300983	  0.140361	  0.017314	  0.353441	  0.632758	  0.614650	  0.724960	  0.979171	
2.194	  0.166260	  0.036624	  0.004464	  0.362831	  0.254586	  0.084255	  0.751355	  0.541512	  0.302051	  0.141139	  0.017406	  0.355950	  0.629442	  0.613117	  0.724571	  0.987844	
2.1945	  0.168390	  0.037056	  0.004334	  0.365299	  0.255354	  0.085166	  0.756612	  0.545169	  0.303118	  0.141904	  0.017504	  0.358433	  0.625995	  0.611510	  0.724159	  0.996424	
2.195	  0.170541	  0.037497	  0.004216	  0.367769	  0.256135	  0.086083	  0.761827	  0.548792	  0.304184	  0.142657	  0.017606	  0.360889	  0.622420	  0.609833	  0.723727	  1.004908	
2.1955	  0.172712	  0.037948	  0.004109	  0.370242	  0.256928	  0.087007	  0.767001	  0.552379	  0.305248	  0.143397	  0.017714	  0.363319	  0.618721	  0.608088	  0.723279	  1.013295	
2.196	  0.174904	  0.038408	  0.004013	  0.372716	  0.257734	  0.087938	  0.772130	  0.555931	  0.306313	  0.144125	  0.017826	  0.365720	  0.614902	  0.606279	  0.722818	  1.021585	
2.1965	  0.177114	  0.038878	  0.003928	  0.375189	  0.258554	  0.088874	  0.777214	  0.559448	  0.307377	  0.144839	  0.017943	  0.368091	  0.610968	  0.604408	  0.722349	  1.029775	
2.197	  0.179343	  0.039357	  0.003854	  0.377662	  0.259389	  0.089816	  0.782252	  0.562929	  0.308441	  0.145539	  0.018065	  0.370432	  0.606923	  0.602479	  0.721872	  1.037867	
2.1975	  0.181590	  0.039846	  0.003790	  0.380132	  0.260239	  0.090763	  0.787242	  0.566374	  0.309505	  0.146226	  0.018191	  0.372742	  0.602770	  0.600494	  0.721393	  1.045860	
2.198	  0.183855	  0.040344	  0.003737	  0.382599	  0.261105	  0.091715	  0.792185	  0.569781	  0.310570	  0.146898	  0.018322	  0.375019	  0.598516	  0.598456	  0.720912	  1.053753	
2.1985	  0.186136	  0.040853	  0.003695	  0.385061	  0.261986	  0.092672	  0.797079	  0.573152	  0.311636	  0.147557	  0.018457	  0.377262	  0.594164	  0.596367	  0.720434	  1.061547	
2.199	  0.188432	  0.041371	  0.003662	  0.387516	  0.262885	  0.093633	  0.801924	  0.576484	  0.312703	  0.148201	  0.018597	  0.379471	  0.589719	  0.594231	  0.719960	  1.069240	
2.1995	  0.190744	  0.041900	  0.003639	  0.389964	  0.263802	  0.094597	  0.806719	  0.579776	  0.313772	  0.148830	  0.018742	  0.381644	  0.585185	  0.592048	  0.719492	  1.076833	
2.2	  0.193069	  0.042439	  0.003626	  0.392403	  0.264736	  0.095565	  0.811463	  0.583028	  0.314842	  0.149443	  0.018891	  0.383780	  0.580568	  0.589821	  0.719033	  1.084325	
2.2005	  0.195408	  0.042989	  0.003623	  0.394831	  0.265690	  0.096536	  0.816155	  0.586237	  0.315914	  0.150041	  0.019044	  0.385878	  0.575872	  0.587552	  0.718584	  1.091715	
2.201	  0.197759	  0.043549	  0.003629	  0.397248	  0.266664	  0.097509	  0.820796	  0.589403	  0.316988	  0.150624	  0.019202	  0.387938	  0.571102	  0.585244	  0.718148	  1.099003	
2.2015	  0.200121	  0.044119	  0.003644	  0.399653	  0.267658	  0.098484	  0.825383	  0.592524	  0.318065	  0.151190	  0.019364	  0.389958	  0.566262	  0.582898	  0.717728	  1.106189	
2.202	  0.202493	  0.044701	  0.003668	  0.402045	  0.268673	  0.099460	  0.829916	  0.595597	  0.319143	  0.151739	  0.019531	  0.391938	  0.561358	  0.580517	  0.717324	  1.113275	
2.2025	  0.204874	  0.045293	  0.003702	  0.404422	  0.269710	  0.100438	  0.834396	  0.598621	  0.320224	  0.152272	  0.019701	  0.393877	  0.556393	  0.578101	  0.716939	  1.120261	
2.203	  0.207262	  0.045896	  0.003744	  0.406784	  0.270769	  0.101415	  0.838820	  0.601595	  0.321306	  0.152788	  0.019876	  0.395774	  0.551373	  0.575655	  0.716575	  1.127150	
2.2035	  0.209658	  0.046511	  0.003795	  0.409130	  0.271850	  0.102393	  0.843188	  0.604514	  0.322391	  0.153286	  0.020055	  0.397629	  0.546302	  0.573178	  0.716234	  1.133944	
2.204	  0.212058	  0.047137	  0.003854	  0.411459	  0.272954	  0.103370	  0.847500	  0.607379	  0.323477	  0.153767	  0.020238	  0.399441	  0.541184	  0.570674	  0.715917	  1.140646	
2.2045	  0.214462	  0.047774	  0.003921	  0.413770	  0.274082	  0.104345	  0.851752	  0.610185	  0.324565	  0.154230	  0.020424	  0.401209	  0.536025	  0.568144	  0.715626	  1.147259	
2.205	  0.216869	  0.048423	  0.003997	  0.416064	  0.275234	  0.105319	  0.855945	  0.612932	  0.325655	  0.154675	  0.020615	  0.402933	  0.530827	  0.565589	  0.715362	  1.153785	
2.2055	  0.219276	  0.049084	  0.004081	  0.418338	  0.276409	  0.106290	  0.860075	  0.615617	  0.326745	  0.155101	  0.020809	  0.404612	  0.525596	  0.563013	  0.715126	  1.160228	
2.206	  0.221683	  0.049756	  0.004173	  0.420592	  0.277608	  0.107257	  0.864143	  0.618240	  0.327836	  0.155509	  0.021007	  0.406246	  0.520336	  0.560415	  0.714919	  1.166589	
2.2065	  0.224088	  0.050441	  0.004273	  0.422826	  0.278832	  0.108221	  0.868145	  0.620799	  0.328927	  0.155897	  0.021208	  0.407835	  0.515049	  0.557799	  0.714742	  1.172873	
2.207	  0.226489	  0.051137	  0.004380	  0.425038	  0.280080	  0.109180	  0.872081	  0.623292	  0.330017	  0.156266	  0.021413	  0.409379	  0.509741	  0.555165	  0.714596	  1.179080	
2.2075	  0.228885	  0.051846	  0.004495	  0.427227	  0.281351	  0.110134	  0.875949	  0.625719	  0.331107	  0.156615	  0.021622	  0.410876	  0.504415	  0.552514	  0.714481	  1.185214	
2.208	  0.231274	  0.052566	  0.004618	  0.429392	  0.282647	  0.111082	  0.879747	  0.628079	  0.332195	  0.156944	  0.021833	  0.412328	  0.499074	  0.549849	  0.714399	  1.191275	
2.2085	  0.233653	  0.053299	  0.004747	  0.431531	  0.283967	  0.112023	  0.883473	  0.630371	  0.333280	  0.157252	  0.022048	  0.413734	  0.493721	  0.547169	  0.714349	  1.197267	
2.209	  0.236023	  0.054044	  0.004884	  0.433645	  0.285311	  0.112957	  0.887127	  0.632598	  0.334362	  0.157538	  0.022266	  0.415094	  0.488360	  0.544477	  0.714333	  1.203189	
2.2095	  0.238380	  0.054802	  0.005028	  0.435731	  0.286678	  0.113884	  0.890707	  0.634758	  0.335441	  0.157804	  0.022488	  0.416407	  0.482994	  0.541774	  0.714352	  1.209043	
2.21	  0.240722	  0.055572	  0.005178	  0.437788	  0.288068	  0.114802	  0.894212	  0.636854	  0.336515	  0.158048	  0.022712	  0.417674	  0.477626	  0.539059	  0.714406	  1.214830	
2.2105	  0.243049	  0.056355	  0.005336	  0.439815	  0.289480	  0.115711	  0.897639	  0.638888	  0.337585	  0.158271	  0.022939	  0.418894	  0.472258	  0.536334	  0.714498	  1.220549	
2.211	  0.245358	  0.057150	  0.005500	  0.441811	  0.290915	  0.116610	  0.900988	  0.640860	  0.338650	  0.158472	  0.023169	  0.420067	  0.466894	  0.533600	  0.714627	  1.226200	
2.2115	  0.247647	  0.057957	  0.005670	  0.443775	  0.292372	  0.117500	  0.904258	  0.642772	  0.339709	  0.158652	  0.023401	  0.421193	  0.461537	  0.530858	  0.714795	  1.231784	
2.212	  0.249914	  0.058777	  0.005847	  0.445705	  0.293849	  0.118379	  0.907446	  0.644627	  0.340763	  0.158810	  0.023637	  0.422272	  0.456188	  0.528109	  0.715003	  1.237299	
2.2125	  0.252157	  0.059610	  0.006031	  0.447602	  0.295347	  0.119246	  0.910550	  0.646426	  0.341811	  0.158947	  0.023874	  0.423305	  0.450851	  0.525354	  0.715252	  1.242744	
2.213	  0.254375	  0.060455	  0.006220	  0.449464	  0.296865	  0.120102	  0.913568	  0.648170	  0.342852	  0.159062	  0.024115	  0.424292	  0.445528	  0.522595	  0.715544	  1.248119	
2.2135	  0.256565	  0.061313	  0.006416	  0.451290	  0.298402	  0.120946	  0.916498	  0.649863	  0.343886	  0.159156	  0.024357	  0.425234	  0.440221	  0.519831	  0.715878	  1.253422	
2.214	  0.258725	  0.062184	  0.006617	  0.453082	  0.299957	  0.121776	  0.919338	  0.651505	  0.344914	  0.159228	  0.024602	  0.426132	  0.434933	  0.517065	  0.716256	  1.258650	
2.2145	  0.260852	  0.063067	  0.006824	  0.454838	  0.301529	  0.122594	  0.922087	  0.653100	  0.345933	  0.159278	  0.024849	  0.426987	  0.429666	  0.514297	  0.716678	  1.263802	
2.215	  0.262945	  0.063963	  0.007037	  0.456557	  0.303118	  0.123397	  0.924741	  0.654650	  0.346945	  0.159307	  0.025098	  0.427802	  0.424422	  0.511528	  0.717145	  1.268876	
2.2155	  0.265002	  0.064872	  0.007256	  0.458241	  0.304722	  0.124185	  0.927300	  0.656158	  0.347948	  0.159314	  0.025349	  0.428577	  0.419202	  0.508760	  0.717657	  1.273868	
2.216	  0.267019	  0.065793	  0.007480	  0.459889	  0.306341	  0.124959	  0.929760	  0.657626	  0.348941	  0.159299	  0.025602	  0.429314	  0.414010	  0.505993	  0.718214	  1.278775	
2.2165	  0.268996	  0.066726	  0.007710	  0.461500	  0.307973	  0.125717	  0.932122	  0.659057	  0.349925	  0.159262	  0.025856	  0.430015	  0.408845	  0.503228	  0.718816	  1.283595	
2.217	  0.270928	  0.067672	  0.007945	  0.463074	  0.309617	  0.126459	  0.934383	  0.660453	  0.350898	  0.159204	  0.026113	  0.430682	  0.403712	  0.500468	  0.719463	  1.288324	
2.2175	  0.272816	  0.068631	  0.008185	  0.464611	  0.311272	  0.127184	  0.936542	  0.661818	  0.351860	  0.159124	  0.026370	  0.431316	  0.398610	  0.497713	  0.720155	  1.292963	
